<svg xmlns="http://www.w3.org/2000/svg" width="192" height="192" viewBox="0 0 192 192">
  <defs>
    <linearGradient id="bg" x1="0" y1="0" x2="1" y2="1">
      <stop offset="0%" stop-color="#1e3a8a"/>
      <stop offset="100%" stop-color="#0ea5e9"/>
    </linearGradient>
  </defs>
  <rect width="192" height="192" rx="36" fill="url(#bg)"/>
  <path d="M96 44c-21.5 0-39 17.5-39 39v40.5c0 16.8 13.7 30.5 30.5 30.5h17c16.8 0 30.5-13.7 30.5-30.5V83c0-21.5-17.5-39-39-39z" fill="#ffffff" opacity="0.95"/>
  <path d="M96 62c-10.5 0-19 8.5-19 19v36c0 6.6 5.4 12 12 12h14c6.6 0 12-5.4 12-12V81c0-10.5-8.5-19-19-19z" fill="#0f172a" opacity="0.15"/>
  <path d="M96 70l6 12 13 2-9.5 9.3 2.2 13.2L96 100l-11.7 6.5 2.2-13.2-9.5-9.3 13-2z" fill="#ffffff"/>
</svg>
