<svg xmlns="http://www.w3.org/2000/svg" width="512" height="512" viewBox="0 0 512 512">
  <defs>
    <linearGradient id="bg" x1="0" y1="0" x2="1" y2="1">
      <stop offset="0%" stop-color="#1e3a8a"/>
      <stop offset="100%" stop-color="#0ea5e9"/>
    </linearGradient>
  </defs>
  <rect width="512" height="512" rx="96" fill="url(#bg)"/>
  <path d="M256 118c-55.2 0-100 44.8-100 100v104c0 44.2 35.8 80 80 80h40c44.2 0 80-35.8 80-80V218c0-55.2-44.8-100-100-100z" fill="#ffffff" opacity="0.95"/>
  <path d="M256 166c-26.5 0-48 21.5-48 48v93c0 16.6 13.4 30 30 30h36c16.6 0 30-13.4 30-30v-93c0-26.5-21.5-48-48-48z" fill="#0f172a" opacity="0.15"/>
  <path d="M256 186l16 32 35 5-25.5 24.9 6.2 35.1L256 270l-31.7 17 6.2-35.1-25.5-24.9 35-5z" fill="#ffffff"/>
</svg>
